<?xml version="1.0" standalone="no"?>
<!DOCTYPE svg PUBLIC "-//W3C//DTD SVG 20010904//EN"
 "http://www.w3.org/TR/2001/REC-SVG-20010904/DTD/svg10.dtd">
<svg version="1.0" xmlns="http://www.w3.org/2000/svg"
 width="270.000000pt" height="270.000000pt" viewBox="0 0 270.000000 270.000000"
 preserveAspectRatio="xMidYMid meet">
<metadata>
Created by potrace 1.11, written by Peter Selinger 2001-2013
</metadata>
<g transform="translate(0.000000,270.000000) scale(0.100000,-0.100000)"
fill="#000000" stroke="none">
<path d="M630 2191 c0 -9 20 -61 45 -116 7 -16 36 -88 65 -160 28 -71 56 -139
61 -150 31 -68 299 -741 299 -752 0 -8 -27 -80 -59 -161 -111 -277 -151 -379
-151 -388 0 -5 103 -9 242 -9 l242 0 69 170 c37 94 70 177 74 185 3 8 51 130
106 270 56 140 102 257 103 260 0 3 5 16 11 30 6 14 36 90 67 170 32 80 61
154 66 165 5 11 37 90 70 175 34 85 75 188 91 229 16 40 29 77 29 82 0 5 -116
9 -259 9 l-258 0 -58 -162 c-32 -90 -73 -206 -92 -258 -19 -52 -37 -105 -40
-118 -3 -12 -8 -24 -12 -26 -3 -2 -49 124 -101 280 l-95 284 -257 0 c-142 0
-258 -4 -258 -9z"/>
</g>
</svg>
